<svg aria-hidden="true" style="position: absolute; width: 0; height: 0; overflow: hidden;" version="1.1" xmlns="http://www.w3.org/2000/svg" xmlns:xlink="http://www.w3.org/1999/xlink">
<defs>
<symbol id="icon-vector-desktop" viewBox="0 0 21 32">
<path d="M20.96 21.52v-11.040h-0.086v11.040h0.086zM20.96 10.48c0-5.788-4.692-10.48-10.48-10.48v0.086c5.74 0 10.394 4.653 10.394 10.394h0.086zM10.48 0c-5.788 0-10.48 4.692-10.48 10.48h0.086c0-5.74 4.653-10.394 10.394-10.394v-0.086zM0 10.48v11.040h0.086v-11.040h-0.086zM0 21.52c0 5.788 4.692 10.48 10.48 10.48v-0.086c-5.74 0-10.394-4.653-10.394-10.394h-0.086zM10.48 32c5.788 0 10.48-4.692 10.48-10.48h-0.086c0 5.74-4.653 10.394-10.394 10.394v0.086zM10.48-0.043c-5.812 0-10.523 4.711-10.523 10.523h0.086c0-5.764 4.673-10.437 10.437-10.437v-0.086zM-0.043 10.48v11.040h0.086v-11.040h-0.086zM-0.043 21.52c0 5.812 4.711 10.523 10.523 10.523v-0.086c-5.764 0-10.437-4.673-10.437-10.437h-0.086zM10.48 32.043c5.812 0 10.523-4.711 10.523-10.523h-0.086c0 5.764-4.673 10.437-10.437 10.437v0.086zM21.003 21.52v-11.040h-0.086v11.040h0.086zM21.003 10.48c0-5.812-4.711-10.523-10.523-10.523v0.086c5.764 0 10.437 4.673 10.437 10.437h0.086z"></path>
</symbol>
<symbol id="icon-vector-mobile" viewBox="0 0 21 32">
<path d="M21.080 21.52v-11.040h-0.126v11.040h0.126zM21.080 10.48c0-5.799-4.724-10.5-10.55-10.5v0.126c5.757 0 10.424 4.645 10.424 10.374h0.126zM10.53-0.020c-5.826 0-10.55 4.7-10.55 10.5h0.126c0-5.729 4.667-10.374 10.424-10.374v-0.126zM-0.020 10.48v11.040h0.126v-11.040h-0.126zM-0.020 21.52c0 5.799 4.724 10.5 10.55 10.5v-0.126c-5.757 0-10.424-4.645-10.424-10.374h-0.126zM10.53 32.020c5.826 0 10.55-4.7 10.55-10.5h-0.126c0 5.729-4.667 10.374-10.424 10.374v0.126zM10.53-0.063c-5.85 0-10.593 4.72-10.593 10.543h0.126c0-5.753 4.686-10.417 10.468-10.417v-0.126zM-0.063 10.48v11.040h0.126v-11.040h-0.126zM-0.063 21.52c0 5.823 4.743 10.543 10.593 10.543v-0.126c-5.781 0-10.468-4.664-10.468-10.417h-0.126zM10.53 32.063c5.85 0 10.593-4.72 10.593-10.543h-0.126c0 5.753-4.686 10.417-10.468 10.417v0.126zM21.124 21.52v-11.040h-0.126v11.040h0.126zM21.124 10.48c0-5.823-4.743-10.543-10.593-10.543v0.126c5.781 0 10.468 4.664 10.468 10.417h0.126z"></path>
</symbol>
<symbol id="icon-vector-tablet" viewBox="0 0 21 32">
<path d="M20.96 21.52v-11.040h-0.086v11.040h0.086zM20.96 10.48c0-5.788-4.692-10.48-10.48-10.48v0.086c5.74 0 10.394 4.653 10.394 10.394h0.086zM10.48 0c-5.788 0-10.48 4.692-10.48 10.48h0.086c0-5.74 4.653-10.394 10.394-10.394v-0.086zM0 10.48v11.040h0.086v-11.040h-0.086zM0 21.52c0 5.788 4.692 10.48 10.48 10.48v-0.086c-5.74 0-10.394-4.653-10.394-10.394h-0.086zM10.48 32c5.788 0 10.48-4.692 10.48-10.48h-0.086c0 5.74-4.653 10.394-10.394 10.394v0.086zM10.48-0.043c-5.812 0-10.523 4.711-10.523 10.523h0.086c0-5.764 4.673-10.437 10.437-10.437v-0.086zM-0.043 10.48v11.040h0.086v-11.040h-0.086zM-0.043 21.52c0 5.812 4.711 10.523 10.523 10.523v-0.086c-5.764 0-10.437-4.673-10.437-10.437h-0.086zM10.48 32.043c5.812 0 10.523-4.711 10.523-10.523h-0.086c0 5.764-4.673 10.437-10.437 10.437v0.086zM21.003 21.52v-11.040h-0.086v11.040h0.086zM21.003 10.48c0-5.812-4.711-10.523-10.523-10.523v0.086c5.764 0 10.437 4.673 10.437 10.437h0.086z"></path>
</symbol>
</defs>
</svg>
