<svg xmlns="http://www.w3.org/2000/svg" aria-hidden="true"
  style="position:absolute;width:0;height:0;overflow:hidden">
  <defs>
    <symbol id="icon-basket" viewBox="0 0 27 32">
      <path fill="#ae1332"
        d="M24.222 8.222h-4.667V6.666a6.223 6.223 0 0 0-12.445 0v1.556H2.443A1.555 1.555 0 0 0 .887 9.778v17.111a4.667 4.667 0 0 0 4.667 4.667h15.555a4.667 4.667 0 0 0 4.667-4.667V9.778a1.555 1.555 0 0 0-1.556-1.556zm-14-1.555a3.114 3.114 0 0 1 3.111-3.111 3.114 3.114 0 0 1 3.111 3.111v1.556h-6.222V6.667zm12.445 20.222a1.555 1.555 0 0 1-1.556 1.556H5.556A1.555 1.555 0 0 1 4 26.889V11.333h3.111v1.556a1.555 1.555 0 0 0 2.656 1.1c.292-.292.456-.687.456-1.1v-1.556h6.222v1.556a1.555 1.555 0 0 0 2.656 1.1c.292-.292.456-.687.456-1.1v-1.556h3.111v15.556z"
        style="fill:var(--color1, #ae1332)" />
    </symbol>
    <symbol id="icon-logo" viewBox="0 0 32 32">
      <path fill="#ae1332"
        d="M29.082.314h-4.009c-1.237 0-2.24.983-2.24 2.195v3.929c0 1.212 1.003 2.195 2.24 2.195h4.009c1.237 0 2.24-.983 2.24-2.195V2.509c0-1.212-1.003-2.195-2.24-2.195zM6.73 23.04H2.412C1.08 23.04 0 24.023 0 25.235v3.929c0 1.213 1.08 2.195 2.412 2.195H6.73c1.332 0 2.412-.983 2.412-2.195v-3.929c0-1.212-1.08-2.195-2.412-2.195zM6.25 11.582H2.241c-1.237 0-2.24.983-2.24 2.195v3.929c0 1.212 1.003 2.195 2.24 2.195H6.25c1.237 0 2.24-.983 2.24-2.195v-3.929c0-1.212-1.003-2.195-2.24-2.195zM17.766 22.978h-4.009c-1.237 0-2.24.983-2.24 2.195v3.929c0 1.212 1.003 2.195 2.241 2.195h4.009c1.237 0 2.24-.983 2.24-2.195v-3.929c0-1.213-1.003-2.195-2.24-2.195zM6.25.086H2.241c-1.237 0-2.24.983-2.24 2.195V6.21c0 1.212 1.003 2.195 2.24 2.195H6.25c1.237 0 2.24-.983 2.24-2.195V2.281C8.49 1.069 7.487.086 6.25.086zM18.076 11.697h-4.009c-1.237 0-2.24.983-2.24 2.195v3.929c0 1.212 1.003 2.195 2.24 2.195h4.009c1.237 0 2.24-.983 2.24-2.195v-3.929c0-1.212-1.003-2.195-2.24-2.195zM29.333 22.978h-4.01c-1.237 0-2.24.983-2.24 2.195v3.929c0 1.212 1.003 2.195 2.24 2.195h4.009c1.237 0 2.24-.983 2.24-2.195v-3.929c0-1.213-1.003-2.195-2.24-2.195zM17.591.224h-4.009c-1.237 0-2.24.983-2.24 2.195v3.929c0 1.212 1.003 2.195 2.24 2.195h4.009c1.237 0 2.24-.984 2.24-2.196V2.418c0-1.212-1.003-2.195-2.24-2.195zM29.044 11.926h-4.01c-1.237 0-2.24.983-2.24 2.195v3.929c0 1.212 1.003 2.195 2.24 2.195h4.009c1.237 0 2.24-.983 2.24-2.195v-3.929c0-1.212-1.003-2.195-2.24-2.195z"
        style="fill:var(--color1, #ae1332)" />
    </symbol>
    <symbol id="icon-close-btn" viewBox="0 0 32 32">
      <path fill="none" stroke="#ae1332" stroke-linecap="round" stroke-linejoin="round"
        stroke-width="2.667" d="M24 8 8 24M8 8l16 16" style="stroke:var(--color1, #ae1332)" />
    </symbol>
    <symbol id="icon-basket-white" viewBox="0 0 27 32">
      <path fill="#fff"
        d="M24.222 8.222h-4.667V6.666a6.222 6.222 0 1 0-12.444 0v1.556H2.444A1.555 1.555 0 0 0 .888 9.778v17.111a4.667 4.667 0 0 0 4.667 4.667h15.556a4.667 4.667 0 0 0 4.667-4.667V9.778a1.555 1.555 0 0 0-1.556-1.556zm-14-1.555a3.114 3.114 0 0 1 3.111-3.111 3.114 3.114 0 0 1 3.111 3.111v1.556h-6.222V6.667zm12.445 20.222a1.555 1.555 0 0 1-1.556 1.556H5.555a1.555 1.555 0 0 1-1.556-1.556V11.333H7.11v1.556a1.555 1.555 0 0 0 2.656 1.1c.292-.292.456-.687.456-1.1v-1.556h6.222v1.556a1.555 1.555 0 0 0 2.656 1.1c.292-.292.456-.687.456-1.1v-1.556h3.111v15.556z"
        style="fill:var(--color2, #fff)" />
    </symbol>
    <symbol id="icon-facebook" viewBox="0 0 32 32">
      <path fill="none" stroke="#ae1332" stroke-width=".727"
        d="M7.273.364h17.455a6.909 6.909 0 0 1 6.909 6.909v17.455a6.909 6.909 0 0 1-6.909 6.909H7.273a6.909 6.909 0 0 1-6.909-6.909V7.273A6.909 6.909 0 0 1 7.273.364z"
        style="stroke:var(--color1, #ae1332)" />
      <path fill="#ae1332"
        d="M18.24 8.771h.611v2.291h-.764c-.306 0-.611 0-.764.153-.153.153-.153.305-.153.662v.815h1.68v1.935h-1.68v8.4h-2.596v-8.451h-1.375v-1.935h1.375v-.662c0-1.12.153-1.935.458-2.291.458-.662 1.375-.967 2.749-.967.153.051.305.051.458.051z"
        opacity=".8" style="fill:var(--color1, #ae1332)" />
    </symbol>
    <symbol id="icon-instagram" viewBox="0 0 32 32">
      <path fill="none" stroke="#ae1332" stroke-width=".727"
        d="M7.273.364h17.455a6.909 6.909 0 0 1 6.909 6.909v17.455a6.909 6.909 0 0 1-6.909 6.909H7.273a6.909 6.909 0 0 1-6.909-6.909V7.273A6.909 6.909 0 0 1 7.273.364z"
        style="stroke:var(--color1, #ae1332)" />
      <path fill="#ae1332"
        d="M24.093 12.663a5.895 5.895 0 0 0-.379-2.001 4.166 4.166 0 0 0-2.382-2.378 5.96 5.96 0 0 0-1.978-.379c-.87-.039-1.146-.05-3.355-.05s-2.492 0-3.356.05a5.99 5.99 0 0 0-1.977.379 4.163 4.163 0 0 0-2.382 2.378 5.916 5.916 0 0 0-.379 1.973c-.039.87-.051 1.145-.051 3.351s0 2.487.051 3.351c.014.676.141 1.342.379 1.975a4.166 4.166 0 0 0 2.383 2.377 5.94 5.94 0 0 0 1.977.406c.871.039 1.147.051 3.356.051s2.492 0 3.356-.051a6 6 0 0 0 1.978-.378 4.172 4.172 0 0 0 2.382-2.378 5.948 5.948 0 0 0 .379-1.975c.039-.869.051-1.144.051-3.351-.002-2.205-.002-2.485-.052-3.35zm-8.099 7.493c-2.31 0-4.182-1.869-4.182-4.175s1.872-4.175 4.182-4.175c2.309 0 4.182 1.869 4.182 4.175s-1.874 4.175-4.182 4.175zm4.348-7.531a.973.973 0 1 1 0-1.948.973.973 0 1 1 0 1.948z"
        opacity=".8" style="fill:var(--color1, #ae1332)" />
      <path fill="#ae1332" d="M15.995 18.53a2.548 2.548 0 1 0 0-5.097 2.548 2.548 0 0 0 0 5.097z"
        opacity=".8" style="fill:var(--color1, #ae1332)" />
    </symbol>
    <symbol id="icon-youtube" viewBox="0 0 32 32">
      <path fill="none" stroke="#ae1332" stroke-width=".727"
        d="M7.273.364h17.455a6.909 6.909 0 0 1 6.909 6.909v17.455a6.909 6.909 0 0 1-6.909 6.909H7.273a6.909 6.909 0 0 1-6.909-6.909V7.273A6.909 6.909 0 0 1 7.273.364z"
        style="stroke:var(--color1, #ae1332)" />
      <path fill="#ae1332"
        d="M21.244 9.636c-.865-.051-2.647-.102-5.345-.102h-.356c-2.596 0-4.327.051-5.193.153-1.171.102-1.985.407-2.444.815-.407.356-.713 1.018-.815 1.884-.051.56-.102 1.731-.102 3.513v.255c0 1.68.051 2.851.153 3.411.153.815.407 1.425.916 1.782.509.407 1.375.662 2.596.764.865.051 2.647.102 5.345.102h.356c2.596 0 4.327-.051 5.193-.153 1.171-.102 1.985-.407 2.444-.815.407-.356.713-1.018.815-1.884.051-.56.102-1.731.102-3.513v-.255c0-1.68-.051-2.851-.153-3.411-.153-.815-.407-1.425-.916-1.782-.509-.407-1.375-.662-2.596-.764zm-1.986 6.262-5.6 3.36v-6.72l5.6 3.36z"
        opacity=".8" style="fill:var(--color1, #ae1332)" />
    </symbol>
    <symbol id="icon-arrow" viewBox="0 0 32 32">
      <path
        d="M32 4.741 27.259 0v23.704L3.555 0-.001 3.556 23.703 27.26H-.001l4.741 4.741h27.259V4.742z" />
    </symbol>
    <symbol id="icon-hamburger-menu" viewBox="0 0 46 32">
      <path fill="#ae1332"
        d="M0 2.274A2.274 2.274 0 0 1 2.274 0h18.309a2.275 2.275 0 0 1 1.608 3.882 2.275 2.275 0 0 1-1.608.666H2.274A2.275 2.275 0 0 1 0 2.274zM0 16a2.274 2.274 0 0 1 2.274-2.274H43.44a2.275 2.275 0 0 1 1.608 3.882 2.275 2.275 0 0 1-1.608.666H2.274A2.275 2.275 0 0 1 0 16zm2.274 11.451a2.275 2.275 0 0 0-1.608 3.882 2.275 2.275 0 0 0 1.608.666h27.451a2.275 2.275 0 0 0 1.608-3.882 2.275 2.275 0 0 0-1.608-.666H2.274z"
        style="fill:var(--color1, #ae1332)" />
    </symbol>
  </defs>
</svg>